<?xml version="1.0" encoding="utf-8"?>
<!-- Generator: Adobe Illustrator 21.0.2, SVG Export Plug-In . SVG Version: 6.00 Build 0)  -->
<svg version="1.1" id="Layer_1" xmlns="http://www.w3.org/2000/svg" xmlns:xlink="http://www.w3.org/1999/xlink" x="0px" y="0px"
	 viewBox="0 0 30 30" style="enable-background:new 0 0 30 30;" xml:space="preserve">
<style type="text/css">
	.st0{fill:#FFFFFF;}
	.st1{fill:#CFD9DC;}
	.st2{fill:#FBB317;}
	.st3{fill:#DB5D26;}
</style>
<g>
	<g id="Notas_e_Relatórios_1_">
		<path class="st0" d="M15,28l-12-3.2c-2.1,0-1.8-1.7-1.8-3.8V4.4C1.1,2.4,1.5,2,3.6,2L15,5.1C15,16.8,15,19.2,15,28z"/>
	</g>
	<g id="Notas_e_Relatórios_2_">
		<path class="st1" d="M15,28l12-3.2c2.1,0,1.8-1.7,1.8-3.8V4.4c0-2.1-0.4-2.5-2.5-2.5L15,5.1C15,16.8,15,19.2,15,28z"/>
	</g>
	<g>
		<g>
			<path class="st2" d="M5.5,9.8c2,0.6,4,1.2,5.9,1.8c1,0.3,1.5-1.3,0.4-1.6c-2-0.6-4-1.2-5.9-1.8C4.9,7.9,4.4,9.5,5.5,9.8L5.5,9.8z
				"/>
		</g>
	</g>
	<g>
		<g>
			<path class="st2" d="M5.5,14.9c2,0.6,4,1.2,5.9,1.8c1,0.3,1.5-1.3,0.4-1.6c-2-0.6-4-1.2-5.9-1.8C4.9,13,4.4,14.6,5.5,14.9
				L5.5,14.9z"/>
		</g>
	</g>
	<g>
		<g>
			<path class="st2" d="M5.5,20c2,0.6,4,1.2,5.9,1.8c1,0.3,1.5-1.3,0.4-1.6c-2-0.6-4-1.2-5.9-1.8C4.9,18.1,4.4,19.7,5.5,20L5.5,20z"
				/>
		</g>
	</g>
	<g>
		<g>
			<path class="st2" d="M24,8.2c-2,0.6-4,1.2-5.9,1.8c-1,0.3-0.6,1.9,0.4,1.6c2-0.6,4-1.2,5.9-1.8C25.5,9.5,25,7.9,24,8.2L24,8.2z"
				/>
		</g>
	</g>
	<g>
		<g>
			<path class="st2" d="M24,13.3c-2,0.6-4,1.2-5.9,1.8c-1,0.3-0.6,1.9,0.4,1.6c2-0.6,4-1.2,5.9-1.8C25.5,14.6,25,13,24,13.3L24,13.3
				z"/>
		</g>
	</g>
	<g>
		<g>
			<path class="st2" d="M24,18.4c-2,0.6-4,1.2-5.9,1.8c-1,0.3-0.6,1.9,0.4,1.6c2-0.6,4-1.2,5.9-1.8C25.5,19.7,25,18.1,24,18.4
				L24,18.4z"/>
		</g>
	</g>
	<polygon class="st3" points="25.4,2.1 25.4,12 23.6,10.7 21.8,12 21.8,3.1 	"/>
</g>
</svg>
