<?xml version="1.0" encoding="utf-8"?>
<!-- Generator: Adobe Illustrator 21.0.2, SVG Export Plug-In . SVG Version: 6.00 Build 0)  -->
<svg version="1.1" id="Layer_1" xmlns="http://www.w3.org/2000/svg" xmlns:xlink="http://www.w3.org/1999/xlink" x="0px" y="0px"
	 viewBox="0 0 30 30" style="enable-background:new 0 0 30 30;" xml:space="preserve">
<style type="text/css">
	.st0{fill:#FFFFFF;}
	.st1{fill:#D0D9DC;}
	.st2{fill:#F89921;}
	.st3{fill:#ED6E24;}
	.st4{fill:#DB5E26;}
	.st5{fill:#FAB317;}
	.st6{fill:#F6E505;}
	.st7{fill:#444546;}
</style>
<g>
	<path class="st0" d="M8.1,26.2V4c0-2.6,0.9-3.5,3.5-3.5h10.6l7.2,6.2v19.5c0,2.6-0.5,3.1-3.1,3.1H12.8C8.1,29.3,8.1,28.8,8.1,26.2z
		"/>
	<path class="st1" d="M22.2,0.5l7.2,6.1c0,0-4.6,0-6,0s-1.3-1.3-1.3-1.3S22.3,0.5,22.2,0.5z"/>
	<g>
		<g>
			<path class="st1" d="M18.5,10.9c2.3,0,4.7,0,7,0c0.8,0,0.8-1.2,0-1.2c-2.3,0-4.7,0-7,0C17.8,9.7,17.8,10.9,18.5,10.9L18.5,10.9z"
				/>
		</g>
	</g>
	<g>
		<g>
			<path class="st1" d="M18.5,13.5c1.4,0,2.8,0,4.1,0c0.8,0,0.8-1.2,0-1.2c-1.4,0-2.8,0-4.1,0C17.8,12.3,17.8,13.5,18.5,13.5
				L18.5,13.5z"/>
		</g>
	</g>
	<g>
		<g>
			<path class="st2" d="M11.6,11.8c0.6,0.6,1.2,1.1,1.8,1.7c0.4,0.4,1.1-0.2,0.7-0.7c-0.6-0.6-1.2-1.1-1.8-1.7
				C11.9,10.7,11.2,11.4,11.6,11.8L11.6,11.8z"/>
		</g>
	</g>
	<g>
		<g>
			<path class="st2" d="M14.2,13.5c0.8-1,1.6-2,2.4-3C17,10,16.3,9.3,16,9.8c-0.8,1-1.6,2-2.4,3C13.2,13.2,13.9,13.9,14.2,13.5
				L14.2,13.5z"/>
		</g>
	</g>
	<g>
		<g>
			<path class="st1" d="M18.5,16.8c2.3,0,4.7,0,7,0c0.8,0,0.8-1.2,0-1.2c-2.3,0-4.7,0-7,0C17.8,15.6,17.8,16.8,18.5,16.8L18.5,16.8z
				"/>
		</g>
	</g>
	<g>
		<g>
			<path class="st1" d="M18.5,19.4c1.4,0,2.8,0,4.1,0c0.8,0,0.8-1.2,0-1.2c-1.4,0-2.8,0-4.1,0C17.8,18.2,17.8,19.4,18.5,19.4
				L18.5,19.4z"/>
		</g>
	</g>
	<g>
		<g>
			<path class="st2" d="M11.6,17.7c0.6,0.6,1.2,1.1,1.8,1.7c0.4,0.4,1.1-0.2,0.7-0.7c-0.6-0.6-1.2-1.1-1.8-1.7
				C11.9,16.7,11.2,17.3,11.6,17.7L11.6,17.7z"/>
		</g>
	</g>
	<g>
		<g>
			<path class="st2" d="M14.2,19.4c0.8-1,1.6-2,2.4-3c0.4-0.5-0.3-1.2-0.7-0.7c-0.8,1-1.6,2-2.4,3C13.2,19.2,13.9,19.9,14.2,19.4
				L14.2,19.4z"/>
		</g>
	</g>
	<g>
		<g>
			<path class="st1" d="M18.5,23.1c2.3,0,4.7,0,7,0c0.8,0,0.8-1.2,0-1.2c-2.3,0-4.7,0-7,0C17.8,21.9,17.8,23.1,18.5,23.1L18.5,23.1z
				"/>
		</g>
	</g>
	<g>
		<g>
			<path class="st1" d="M18.5,25.7c1.4,0,2.8,0,4.1,0c0.8,0,0.8-1.2,0-1.2c-1.4,0-2.8,0-4.1,0C17.8,24.5,17.8,25.7,18.5,25.7
				L18.5,25.7z"/>
		</g>
	</g>
	<g>
		<g>
			<path class="st2" d="M11.6,24c0.6,0.6,1.2,1.1,1.8,1.7c0.4,0.4,1.1-0.2,0.7-0.7c-0.6-0.6-1.2-1.1-1.8-1.7
				C11.9,22.9,11.2,23.6,11.6,24L11.6,24z"/>
		</g>
	</g>
	<g>
		<g>
			<path class="st2" d="M14.2,25.6c0.8-1,1.6-2,2.4-3c0.4-0.5-0.3-1.2-0.7-0.7c-0.8,1-1.6,2-2.4,3C13.2,25.4,13.9,26.1,14.2,25.6
				L14.2,25.6z"/>
		</g>
	</g>
	<polygon class="st0" points="0.6,9.4 0.6,8.5 2.6,4.3 4.8,8.5 4.8,9.4 	"/>
	<path class="st3" d="M2.7,29.5L2.7,29.5c-1.2,0-2.1-1-2.1-2.1V8.5c0,0.8,2.1,1,2.1-0.2C2.7,14.3,2.7,22.9,2.7,29.5z"/>
	<path class="st4" d="M2.7,29.5L2.7,29.5c0-9.1,0-9.6,0-21.2c0,1.3,2.1,1,2.1,0.2v18.8C4.8,28.5,3.8,29.5,2.7,29.5z"/>
	<rect x="2.7" y="25.7" class="st5" width="2.1" height="1.5"/>
	<rect x="0.5" y="25.7" class="st6" width="2.1" height="1.5"/>
	<path class="st7" d="M1.7,6.3l0.9-1.9l1,1.9C3.6,6.9,1.7,6.9,1.7,6.3z"/>
</g>
</svg>
