<?xml version="1.0" encoding="utf-8"?>
<!-- Generator: Adobe Illustrator 21.0.2, SVG Export Plug-In . SVG Version: 6.00 Build 0)  -->
<svg version="1.1" id="Layer_1" xmlns="http://www.w3.org/2000/svg" xmlns:xlink="http://www.w3.org/1999/xlink" x="0px" y="0px"
	 viewBox="0 0 44 44" style="enable-background:new 0 0 44 44;" xml:space="preserve">
<style type="text/css">
	.st0{fill:#FFFFFF;}
	.st1{fill:#D0D9DC;}
	.st2{fill:#DB5E26;}
	.st3{fill:#FFFFFF;stroke:#ED6E24;stroke-width:1.5312;stroke-miterlimit:10;}
</style>
<g>
	<path class="st0" d="M33.1,32.1h-21c-2.5,0-3.3-0.9-3.3-3.3V14.1c0-2.5,2-2.2,4.5-2.2h19.8c2.5,0,3,0.5,3,3v12.7
		C36,32.1,35.5,32.1,33.1,32.1z"/>
	<path class="st1" d="M8.7,16.1v-1.9c0-2.5,2-2.2,4.5-2.2h19.8c2.5,0,3,0.5,3,3V16L8.7,16.1z"/>
	<g>
		<g>
			<path class="st2" d="M0.8,28.4c2.8,0.2,5.6,0.3,8.4,0.2c3.9-0.3,7.4-1.6,10.9-3.4C24.3,23,27.9,20,32.2,18
				c1.4-0.7,2.8-1.2,4.4-1.2c2.2,0.1,4.5,0.1,6.7,0c0.9-0.1,0.9-1.5,0-1.4c-1.7,0.1-3.4,0.1-5.2,0.1c-1.7,0-3.1-0.1-4.6,0.5
				c-3,1.1-5.7,2.8-8.3,4.5c-4.4,2.9-9.1,6-14.4,6.6c-3.3,0.4-6.6,0.3-9.9,0C-0.1,26.9-0.1,28.3,0.8,28.4L0.8,28.4z"/>
		</g>
	</g>
	<circle class="st3" cx="8.5" cy="27.5" r="2.7"/>
	<circle class="st3" cx="22.7" cy="22.9" r="2.7"/>
	<circle class="st3" cx="35.9" cy="16.6" r="2.7"/>
</g>
</svg>
