<?xml version="1.0" encoding="UTF-8" standalone="no"?>
<svg width="71px" height="18px" viewBox="0 0 71 18" version="1.1" xmlns="http://www.w3.org/2000/svg" xmlns:xlink="http://www.w3.org/1999/xlink">
    <!-- Generator: sketchtool 3.8.3 (29802) - http://www.bohemiancoding.com/sketch -->
    <title>A41859AF-81BE-428E-B83A-76AB7A519832</title>
    <desc>Created with sketchtool.</desc>
    <defs>
        <linearGradient x1="50%" y1="70.2876801%" x2="11.7085502%" y2="33.705021%" id="linearGradient-1">
            <stop stop-color="#000000" stop-opacity="0" offset="0%"></stop>
            <stop stop-color="#000000" stop-opacity="0.7" offset="100%"></stop>
        </linearGradient>
        <linearGradient x1="77.1376599%" y1="50%" x2="29.8167611%" y2="14.0377814%" id="linearGradient-2">
            <stop stop-color="#000000" stop-opacity="0" offset="0%"></stop>
            <stop stop-color="#000000" offset="100%"></stop>
        </linearGradient>
        <linearGradient x1="45.4914842%" y1="0%" x2="76.2190168%" y2="72.0051872%" id="linearGradient-3">
            <stop stop-color="#000000" stop-opacity="0" offset="0%"></stop>
            <stop stop-color="#000000" stop-opacity="0.7" offset="100%"></stop>
        </linearGradient>
        <linearGradient x1="35.8016352%" y1="50.1234477%" x2="3.98641518%" y2="66.8458979%" id="linearGradient-4">
            <stop stop-color="#000000" stop-opacity="-0.121951207" offset="0%"></stop>
            <stop stop-color="#000000" stop-opacity="0" offset="0%"></stop>
            <stop stop-color="#000000" stop-opacity="0.7" offset="100%"></stop>
        </linearGradient>
        <linearGradient x1="35.8016352%" y1="50.1234477%" x2="23.9194746%" y2="87.319095%" id="linearGradient-5">
            <stop stop-color="#000000" stop-opacity="-0.121951207" offset="0%"></stop>
            <stop stop-color="#000000" stop-opacity="0" offset="0%"></stop>
            <stop stop-color="#000000" stop-opacity="0.7" offset="100%"></stop>
        </linearGradient>
        <linearGradient x1="59.8033219%" y1="69.3299624%" x2="11.582497%" y2="30.6843004%" id="linearGradient-6">
            <stop stop-color="#000000" stop-opacity="0" offset="0%"></stop>
            <stop stop-color="#000000" stop-opacity="0.7" offset="100%"></stop>
        </linearGradient>
        <linearGradient x1="35.3153639%" y1="50%" x2="50%" y2="100%" id="linearGradient-7">
            <stop stop-color="#000000" stop-opacity="0" offset="0%"></stop>
            <stop stop-color="#000000" stop-opacity="0.7" offset="100%"></stop>
        </linearGradient>
    </defs>
    <g id="Symbols" stroke="none" stroke-width="1" fill="none" fill-rule="evenodd">
        <g id="marca-logos-color-footer">
            <g id="marca-logos-color">
                <g id="Logo-Logo-Efeito">
                    <path d="M18.8722469,13.3550499 C17.2929592,12.5711521 16.2021545,10.9187275 16.1997452,9.00006177 C16.2039614,6.32467827 18.3157016,4.15953876 20.9237548,4.15459693 L24.2997683,4.15459693 C25.4176775,4.15459693 26.3241718,3.22553279 26.3241718,2.07841038 C26.3241718,0.931287965 25.4176775,0.00037063729 24.2997683,0.00037063729 L20.9237548,0.00037063729 C16.0774739,0.00160609492 12.1515406,4.02919798 12.1491313,9.00006177 C12.1497336,10.5839185 12.560517,12.0639967 13.2616196,13.3550499 L18.8722469,13.3550499 Z M39.5164641,6.43481931 L41.1734513,6.43481931 C41.8323914,6.43481931 42.4768756,6.70909091 42.9430727,7.18659528 C43.1129274,7.36017708 43.2454382,7.56340986 43.3586747,7.77776176 C43.8905248,5.69601565 45.7282086,4.15787089 47.9236714,4.15478225 L47.9248761,4.15416452 C50.534134,4.15910635 52.6452718,6.32486358 52.6506927,9.00024709 C52.6470787,10.9189128 51.554467,12.5707197 49.976384,13.3552353 L55.5894206,13.3552353 C56.2899208,12.0635643 56.6988973,10.5841038 56.7001019,9.00024709 C56.698295,4.0293833 52.7723617,0.0030268712 47.9248761,0.00117368475 C43.9471431,0.00117368475 40.5946201,2.71547411 39.5164641,6.43481931 Z M68.1749942,6.92288685 L57.1591314,6.92350458 C57.9180568,5.2883764 59.5425186,4.15793267 61.4265811,4.15546175 L68.1768012,4.15546175 C69.2929034,4.15546175 70.2,3.22577988 70.2,2.07742201 C70.2,0.930917327 69.2929034,0.00123545763 68.1768012,0.00123545763 L68.1768012,0 L61.4265811,0 C58.8799647,0.00123545763 56.5959605,1.11932462 54.9931823,2.89405951 C56.3532248,4.54648409 57.1765987,6.67579533 57.177201,9.00030886 C57.177201,9.69896016 57.0940806,10.396376 56.9422955,11.0783486 L65.6928262,11.0771131 C64.9332984,12.7116236 63.3094389,13.8414496 61.4265811,13.8445382 L47.9249363,13.845156 L47.9249363,13.8445382 C45.9077607,13.8408319 44.1941552,12.5442191 43.5153386,10.7225368 C43.216587,12.3718727 42.5082566,13.872336 41.4915375,15.1053228 C43.0943157,16.8794399 45.3789222,17.9969114 47.9249363,17.9987645 L47.9261409,18 L61.4265811,17.9987645 C66.2728621,17.9969114 70.1987954,13.9705549 70.1993977,9.00092659 L70.1993977,9.00030886 C70.1993977,8.45300113 69.9843688,7.91743025 69.6067131,7.53134974 C69.2290573,7.1446515 68.7092536,6.92288685 68.1749942,6.92288685 Z M29.6998842,8.99956759 C29.7010888,8.33798003 29.8402251,7.71160301 30.0745283,7.13835066 C30.1112699,7.04630907 30.1510232,6.95612066 30.193788,6.86778544 C30.2522132,6.74423968 30.3166617,6.62378256 30.386531,6.50703181 C30.420261,6.44958303 30.4521841,6.39213425 30.489528,6.33592093 C30.5810809,6.1938433 30.680464,6.05732523 30.7876773,5.925749 C30.8183957,5.88744981 30.8479095,5.84976835 30.8792302,5.81332235 C30.9990922,5.67248018 31.1273868,5.53905076 31.2617045,5.41365181 C31.2827858,5.39388448 31.3032647,5.37473489 31.3255506,5.35620303 C31.4761311,5.22153814 31.6327347,5.09490374 31.8007825,4.98000618 C31.8043964,4.97691753 31.8104197,4.97321116 31.8170452,4.96950479 C31.9959348,4.84842994 32.1808475,4.73723875 32.3747952,4.64149079 L32.3711812,4.64149079 C32.9915726,4.33200865 33.6878566,4.15595594 34.4257008,4.15472048 L39.98754,4.15472048 C41.1168933,2.21628745 42.8955495,0.724472357 45.0187338,0.00111191187 L34.4257008,0.00111191187 C32.1718127,0.00172964069 30.1251233,0.880140019 28.5723378,2.31265315 C28.5723378,2.31141769 28.5717355,2.31018223 28.5717355,2.30832904 C28.4693408,2.40345928 28.3771856,2.50909091 28.2784048,2.60792752 C28.183238,2.70367549 28.0832525,2.79386389 27.9935066,2.89393596 C27.9941089,2.89455369 27.9941089,2.89578915 27.9953136,2.89640688 C26.5443204,4.50064862 25.6504749,6.63922578 25.6498726,8.99956759 C25.6498726,11.6737156 23.5351209,13.8400906 20.9252606,13.8450324 L8.77582819,13.8450324 C6.16657028,13.8400906 4.05422784,11.6749511 4.04940926,9.00142078 L4.04940926,2.07915165 C4.04940926,0.93141151 3.142915,0.00172964069 2.02560811,0.00172964069 C0.906494264,0.00172964069 0,0.93141151 0,2.07915165 L0,9.00142078 C0.00180696531,13.9710491 3.92713794,17.9961701 8.77341891,17.998641 L20.9252606,17.998641 C25.7721439,17.9961701 29.6980772,13.9698137 29.6986795,8.99956759 L29.6998842,8.99956759 Z M24.2995876,4.64377638 L22.9750821,4.64377638 C24.0562496,5.179965 24.8964885,6.12817873 25.3277509,7.28580253 C25.61807,5.67847215 26.3191725,4.17492021 27.3617915,2.90486976 C27.1744695,2.69793061 26.9811242,2.49778647 26.7775394,2.30999691 C26.6618936,3.61402244 25.6006027,4.64377638 24.2995876,4.64377638 Z M42.6057123,7.5339442 C42.2274542,7.14724596 41.7076505,6.92548131 41.1733911,6.92548131 L34.424978,6.92548131 C33.3058641,6.92548131 32.3993699,7.85516318 32.3993699,9.00105014 C32.3993699,10.1487903 33.3058641,11.0790899 34.424978,11.0790899 L38.6918254,11.0790899 C37.9322977,12.7136003 36.3084382,13.8428086 34.424978,13.846515 C32.4084047,13.8428086 30.6935946,12.5461958 30.0141757,10.725749 C29.717231,12.3738495 29.0064913,13.873695 27.9903745,15.1066818 C29.5937551,16.8807989 31.8783615,17.9988881 34.424978,17.9995058 C39.2718613,17.9976526 43.1959876,13.9712962 43.1983969,9.00105014 C43.1983969,8.45497786 42.9821634,7.92064244 42.6057123,7.5339442 Z" id="Logos-OneColor" fill="#F81333"></path>
                    <g id="Sombras" opacity="0.137709888" style="mix-blend-mode: darken;" transform="translate(12.117857, 0.000000)">
                        <path d="M22.3493333,13.7352715 C20.3353921,13.7315949 18.6228203,12.4453991 17.9442881,10.6395779 C17.6477311,12.2744374 16.9379191,13.7622332 15.9231285,14.985314 C17.5244163,16.7451779 19.8060408,17.8542843 22.3493333,17.854897 C27.1898903,17.8530587 25.6661636,14.9959259 25.6661636,14.9959259 C25.6661636,14.9959259 24.2303351,13.7315949 22.3493333,13.7352715 Z" id="Fill-13" fill="url(#linearGradient-1)" style="mix-blend-mode: overlay;"></path>
                        <path d="M12.237159,4.60646809 L10.9143822,4.60646809 C11.9941386,5.13834894 12.8332808,6.07894468 13.2639802,7.22726809 C13.5539204,5.63285106 14.2541078,4.14137872 15.295366,2.88153191 C15.1082884,2.67625532 14.9151955,2.47771915 14.7118764,2.2914383 C14.5963816,3.58498723 13.5364759,4.60646809 12.237159,4.60646809" id="Fill-11" fill="url(#linearGradient-2)" style="mix-blend-mode: overlay;"></path>
                        <path d="M22.3500551,4.12134128 L27.9046349,4.12134128 C29.0325141,2.1984817 30.8088487,0.718651915 32.9292617,0.00110297872 L22.3500551,0.00110297872 C20.0991089,0.00171574468 21.613174,4.12256681 22.3500551,4.12134128 Z" id="Fill-8" fill="url(#linearGradient-3)" style="mix-blend-mode: overlay;"></path>
                        <path d="M45.0538132,6.86788085 C45.8117481,5.24588936 47.4340896,4.12452766 49.3156929,4.1220766 L56.0571024,4.1220766 C57.1717478,4.1220766 58.0776604,3.19986383 58.0776604,2.06073191 C58.0776604,0.923438298 57.1717478,0.00122553191 56.0571024,0.00122553191 L49.3156929,0 C46.7724004,0.00122553191 44.4913774,1.11033191 42.8906912,2.87080851 C44.2489586,4.50995745 45.0712577,6.6221617 45.0718593,8.928 C45.0718593,9.6210383 44.9888474,10.3128511 44.8372604,10.9893447 L53.5763696,10.9881191 C55.1347392,10.3744668 56.5888598,6.86726809 56.0552978,6.86726809 L45.0538132,6.86788085 Z" id="Fill-5" fill="url(#linearGradient-4)" style="mix-blend-mode: overlay;"></path>
                        <path d="M40.5512591,8.92793872 C40.5476499,10.8311898 39.4564643,12.469726 37.8804411,13.2479387 L43.4861513,13.2479387 C44.1857372,11.9666451 44.5941799,10.4990706 44.5953829,8.92793872 C44.5935783,3.99701106 42.5642372,6.13624599 42.5642372,6.13624599 C42.5642372,6.13624599 40.5458453,6.27404936 40.5512591,8.92793872 Z" id="Fill-3" fill="url(#linearGradient-5)" style="mix-blend-mode: overlay;"></path>
                        <path d="M37.4206939,15.7811353 C37.4205155,15.1700188 35.831671,13.7339234 35.831671,13.7339234 C33.8171282,13.729634 32.1057595,12.4434383 31.4278289,10.6363915 C31.1294672,12.2724766 30.4220613,13.7608851 29.4066692,14.983966 C31.0073555,16.7438298 33.28898,17.8523234 35.831671,17.8541617 C35.831671,17.8541617 37.4209166,16.5438401 37.4206939,15.7811353 Z" id="Fill-5" fill="url(#linearGradient-6)" style="mix-blend-mode: overlay;"></path>
                        <path d="M29.0889983,6.3831217 C29.7470782,6.3831217 30.3907213,6.65518979 30.8563099,7.12885787 C31.0259429,7.30104511 31.1582807,7.50264511 31.2713694,7.71527489 C31.8025254,5.65025362 33.6378105,4.12446638 35.8304077,4.12140255 C38.437463,4.12569191 40.6727693,0.00300255319 35.8316108,0.00116425532 C31.8590697,0.00116425532 28.5109226,2.69365787 27.4341739,6.3831217 L29.0889983,6.3831217 Z" id="Fill-3" fill="url(#linearGradient-5)" style="mix-blend-mode: overlay;"></path>
                        <path d="M6.81690216,13.2477549 C5.23967583,12.4701549 4.15029486,10.831006 4.14788872,8.92775489 C4.15209946,6.27386553 0.104967962,3.99682723 0.102561819,8.92775489 C0.103163355,10.4988868 0.513410633,11.967074 1.21359807,13.2477549 L6.81690216,13.2477549 Z" id="Path" fill="url(#linearGradient-7)" style="mix-blend-mode: overlay;"></path>
                    </g>
                </g>
            </g>
        </g>
    </g>
</svg>